<svg width="32" height="32" viewBox="0 0 32 32" fill="none" xmlns="http://www.w3.org/2000/svg">
<path d="M5.82699 18.8261C7.38776 18.8261 8.65301 17.5609 8.65301 16.0001C8.65301 14.4393 7.38776 13.1741 5.82699 13.1741C4.26623 13.1741 3.00098 14.4393 3.00098 16.0001C3.00098 17.5609 4.26623 18.8261 5.82699 18.8261Z" stroke="white" stroke-width="1.5" stroke-miterlimit="10"/>
<path d="M16.0008 18.8261C17.5616 18.8261 18.8268 17.5609 18.8268 16.0001C18.8268 14.4393 17.5616 13.1741 16.0008 13.1741C14.4401 13.1741 13.1748 14.4393 13.1748 16.0001C13.1748 17.5609 14.4401 18.8261 16.0008 18.8261Z" stroke="white" stroke-width="1.5" stroke-miterlimit="10"/>
<path d="M26.1746 18.8261C27.7354 18.8261 29.0007 17.5609 29.0007 16.0001C29.0007 14.4393 27.7354 13.1741 26.1746 13.1741C24.6139 13.1741 23.3486 14.4393 23.3486 16.0001C23.3486 17.5609 24.6139 18.8261 26.1746 18.8261Z" stroke="white" stroke-width="1.5" stroke-miterlimit="10"/>
</svg>
