<svg width="48" height="48" viewBox="0 0 48 48" fill="none" xmlns="http://www.w3.org/2000/svg">
<path d="M33.4209 8.58191L23.9999 6.05591L14.5789 8.58291C12.7209 9.08091 11.0939 10.2089 9.97591 11.7739L5.98291 16.9299C5.98291 16.9299 7.98791 21.4789 11.7049 22.7649L13.1219 21.3479C14.0529 23.9569 15.5269 27.4489 14.3809 32.2949C13.9269 34.2129 11.7669 38.5469 11.7039 41.4499C11.7039 41.4499 15.6139 43.7799 22.9549 43.9869L23.4199 43.7269L24.5179 43.7329L25.0419 43.9869C32.3829 43.7799 36.2929 41.4499 36.2929 41.4499C36.2309 38.5469 34.0699 34.2129 33.6159 32.2949C32.4699 27.4499 34.0099 23.9899 34.8749 21.3479L36.2919 22.7649C39.9759 21.5109 42.0299 17.0109 42.0299 17.0109L38.0209 11.7739C36.9049 10.2089 35.2779 9.08091 33.4209 8.58191Z" fill="url(#paint0_radial_11_297)"/>
<path d="M25.0431 43.985V11H22.9561V43.985C23.3001 43.995 23.6421 44.01 24.0001 44.01C24.3581 44.01 24.7001 43.995 25.0431 43.985Z" fill="url(#paint1_radial_11_297)"/>
<path d="M27.9072 5.40206C26.9502 4.50106 24.0002 4.57806 24.0002 4.57806C24.0002 4.57806 21.0502 4.50106 20.0932 5.40206L19.3462 6.47506L19.4992 10.5551L22.0002 11.0001H24.0002H26.0002L28.5012 10.5541L28.6542 6.47406L27.9072 5.40206Z" fill="url(#paint2_linear_11_297)"/>
<path opacity="0.19" d="M20.9878 14.3699C19.6298 14.3699 18.5068 12.0009 17.9378 9.9529C17.5188 8.4439 18.4858 7.5249 18.4858 7.5249C18.4858 7.5249 22.7678 10.2859 23.9998 10.9999C23.9998 10.9999 22.7928 14.4669 20.9878 14.3699Z" fill="#66122E"/>
<path opacity="0.19" d="M27.012 14.3699C28.37 14.3699 29.493 12.0009 30.062 9.95294C30.481 8.44394 29.508 7.53394 29.508 7.53394C29.508 7.53394 25.232 10.2859 24 10.9999C24 10.9999 25.239 14.3699 27.012 14.3699Z" fill="#66122E"/>
<path d="M21.972 13.4499L24 10.9999C24 10.9999 20.935 8.88788 20.073 6.83788C19.796 6.17788 20.092 5.40088 20.092 5.40088C20.092 5.40088 18.637 6.73088 18.26 8.09988C17.887 9.45488 18.692 11.6439 20.198 13.4719C20.655 14.0259 21.515 14.0019 21.972 13.4499ZM26.028 13.4499L24 10.9999C24 10.9999 27.065 8.88788 27.927 6.83788C28.204 6.17788 27.908 5.40088 27.908 5.40088C27.908 5.40088 29.363 6.73088 29.74 8.09988C30.113 9.45488 29.308 11.6439 27.802 13.4719C27.345 14.0259 26.485 14.0019 26.028 13.4499Z" fill="url(#paint3_radial_11_297)"/>
<path d="M23.9998 17.818C24.2837 17.818 24.5138 17.5879 24.5138 17.304C24.5138 17.0202 24.2837 16.79 23.9998 16.79C23.716 16.79 23.4858 17.0202 23.4858 17.304C23.4858 17.5879 23.716 17.818 23.9998 17.818Z" fill="#C9266B"/>
<path d="M23.9998 23.1989C24.2837 23.1989 24.5138 22.9688 24.5138 22.6849C24.5138 22.401 24.2837 22.1709 23.9998 22.1709C23.716 22.1709 23.4858 22.401 23.4858 22.6849C23.4858 22.9688 23.716 23.1989 23.9998 23.1989Z" fill="#C9266B"/>
<path d="M23.9998 28.579C24.2837 28.579 24.5138 28.3489 24.5138 28.065C24.5138 27.7812 24.2837 27.551 23.9998 27.551C23.716 27.551 23.4858 27.7812 23.4858 28.065C23.4858 28.3489 23.716 28.579 23.9998 28.579Z" fill="#C9266B"/>
<path d="M23.9998 33.9599C24.2837 33.9599 24.5138 33.7298 24.5138 33.4459C24.5138 33.162 24.2837 32.9319 23.9998 32.9319C23.716 32.9319 23.4858 33.162 23.4858 33.4459C23.4858 33.7298 23.716 33.9599 23.9998 33.9599Z" fill="#C9266B"/>
<path d="M23.9998 39.34C24.2837 39.34 24.5138 39.1099 24.5138 38.826C24.5138 38.5421 24.2837 38.312 23.9998 38.312C23.716 38.312 23.4858 38.5421 23.4858 38.826C23.4858 39.1099 23.716 39.34 23.9998 39.34Z" fill="#C9266B"/>
<defs>
<radialGradient id="paint0_radial_11_297" cx="0" cy="0" r="1" gradientUnits="userSpaceOnUse" gradientTransform="translate(24.8222 22.607) rotate(-1.84521) scale(22.6084 32.2941)">
<stop stop-color="#FF78AE"/>
<stop offset="0.223" stop-color="#FC74AB"/>
<stop offset="0.443" stop-color="#F568A1"/>
<stop offset="0.662" stop-color="#E85491"/>
<stop offset="0.879" stop-color="#D5397A"/>
<stop offset="1" stop-color="#C9266B"/>
</radialGradient>
<radialGradient id="paint1_radial_11_297" cx="0" cy="0" r="1" gradientUnits="userSpaceOnUse" gradientTransform="translate(24.0001 27.505) scale(11.694)">
<stop stop-color="#FFEDED"/>
<stop offset="0.863" stop-color="#FFEBEF"/>
</radialGradient>
<linearGradient id="paint2_linear_11_297" x1="24.0002" y1="2.92406" x2="24.0002" y2="10.9171" gradientUnits="userSpaceOnUse">
<stop offset="0.212" stop-color="#F2D3D3"/>
<stop offset="0.324" stop-color="#E4C3C5"/>
<stop offset="0.612" stop-color="#C5A0A5"/>
<stop offset="0.848" stop-color="#B28A91"/>
<stop offset="1" stop-color="#AB828A"/>
</linearGradient>
<radialGradient id="paint3_radial_11_297" cx="0" cy="0" r="1" gradientUnits="userSpaceOnUse" gradientTransform="translate(24 9.63888) scale(12.413)">
<stop stop-color="#FFEDED"/>
<stop offset="0.863" stop-color="#FFEBEF"/>
</radialGradient>
</defs>
</svg>
