<svg width="48" height="48" viewBox="0 0 48 48" fill="none" xmlns="http://www.w3.org/2000/svg">
<path d="M20 23H8V29H20V23Z" fill="#BF360C"/>
<path d="M42 17.5C42 18.3 41.3 19 40.5 19C39.7 19 39 18.3 39 17.5C39 16.7 39.7 16 40.5 16C41.3 16 42 16.7 42 17.5ZM29 17.5C29 16.7 28.3 16 27.5 16C26.7 16 26 16.7 26 17.5C26 18.3 26.7 19 27.5 19C28.3 19 29 18.3 29 17.5Z" fill="#EF8D3C"/>
<path d="M37.8 26L34 26.8L30.2 26C30.2 26 22 27.5 22 36H46C46 27.6 37.8 26 37.8 26Z" fill="#2196F3"/>
<path d="M34 30C30 30 30 26 30 26V22H38V26C38 26 38 30 34 30Z" fill="#EF8D3C"/>
<path d="M41 12C41 6.09997 27 8.19997 27 12V18.1C27 21.9 30.1 25 34 25C37.9 25 41 21.9 41 18.1V12Z" fill="#FFAA45"/>
<path d="M18 30C18 30 18 34 14 34C10 34 10 30 10 30" fill="#FF9800"/>
<path d="M17.8 30L14 30.8L10.2 30C10.2 30 2 31.5 2 40H26C26 31.6 17.8 30 17.8 30Z" fill="#66BB6A"/>
<path d="M34.1 32.0001C37.2 32.0001 39.7 29.7001 40 26.8001C39.1 26.4001 38.4 26.2001 38 26.1001C38 28.3001 36.2 30.0001 34 30.0001C31.8 30.0001 30 28.2001 30 26.1001C29.6 26.2001 28.9 26.4001 28 26.8001C28.5 29.7001 31 32.0001 34.1 32.0001Z" fill="#0D47A1"/>
<path d="M14 34C10 34 10 30 10 30V26H18V30C18 30 18 34 14 34Z" fill="#FF9800"/>
<path d="M21 17.6999C21 11.7999 7 13.8999 7 17.6999V22.0999C7 25.8999 10.1 28.9999 14 28.9999C17.9 28.9999 21 25.8999 21 22.0999V17.6999Z" fill="#FFB74D"/>
<path d="M13.9999 36.0001C17.0999 36.0001 19.5999 33.7001 19.8999 30.8001C18.9999 30.4001 18.2999 30.2001 17.8999 30.1001C17.8999 32.3001 16.0999 34.0001 13.8999 34.0001C11.6999 34.0001 9.8999 32.2001 9.8999 30.1001C9.4999 30.2001 8.7999 30.4001 7.8999 30.8001C8.3999 33.7001 10.8999 36.0001 13.9999 36.0001Z" fill="#2E7D32"/>
<path d="M34 6C29.1 6 26 10.3 26 14.2V16L28 18V14L37.2 11L40 14V18L42 16V15.2C42 12 41.2 8.4 37.2 7.6L36.4 6H34Z" fill="#424242"/>
<path d="M14 11C4 11 4 25 4 25L8 29V20L17.2 15L20 18V29L24 25C24 25 24 12 17 12L16 11H14Z" fill="#FF5722"/>
<path d="M16 21C16 20.4 16.4 20 17 20C17.6 20 18 20.4 18 21C18 21.6 17.6 22 17 22C16.4 22 16 21.6 16 21ZM10 21C10 21.6 10.4 22 11 22C11.6 22 12 21.6 12 21C12 20.4 11.6 20 11 20C10.4 20 10 20.4 10 21Z" fill="#784719"/>
<path d="M36 17C36 16.4 36.4 16 37 16C37.6 16 38 16.4 38 17C38 17.6 37.6 18 37 18C36.4 18 36 17.6 36 17Z" fill="#784719"/>
<path d="M30 17C30 17.6 30.4 18 31 18C31.6 18 32 17.6 32 17C32 16.4 31.6 16 31 16C30.4 16 30 16.4 30 17Z" fill="#784719"/>
</svg>
