<svg width="25" height="25" viewBox="0 0 25 25" fill="none" xmlns="http://www.w3.org/2000/svg">
<mask id="mask0_11_239" style="mask-type:luminance" maskUnits="userSpaceOnUse" x="0" y="0" width="25" height="25">
<path d="M24.5 0.5H0.5V24.5H24.5V0.5Z" fill="white"/>
</mask>
<g mask="url(#mask0_11_239)">
<path d="M3.40011 10.989C1.94061 8.33829 3.24837 5.32601 5.78888 3.68215C6.8237 3.01256 8.20113 3.26587 8.93002 4.25982L10.4377 6.31568C11.1028 7.22265 11.2048 8.42545 10.7018 9.43141L10.292 10.2509C10.1734 10.4881 10.1546 10.7625 10.276 10.9983C10.497 11.428 10.9678 12.1894 11.8746 13.0962C12.7814 14.003 13.5428 14.4737 13.9725 14.6948C14.2083 14.8161 14.4827 14.7973 14.7199 14.6787L15.5394 14.269C16.5453 13.766 17.7481 13.8679 18.6551 14.5331L20.711 16.0407C21.7049 16.7696 21.9582 18.147 21.2886 19.1818C19.6448 21.7223 16.6325 23.0301 13.9818 21.5706C12.2518 20.6181 10.1714 19.1712 7.98543 16.9853C5.79947 14.7993 4.35264 12.719 3.40011 10.989Z" fill="white"/>
</g>
</svg>
