<svg width="48" height="48" viewBox="0 0 48 48" fill="none" xmlns="http://www.w3.org/2000/svg">
<path d="M27 16.25H39V29.75H27V16.25Z" fill="#3E2723"/>
<path d="M36.75 29L33 29.77L29.25 29C29.25 29 21 30.527 21 39H45C45 30.559 36.75 29 36.75 29Z" fill="#00695C"/>
<path d="M33 34L29 29V25H37V29L33 34Z" fill="#FF9800"/>
<path d="M40 21C40 24.728 36.728 28 33 28C29.271 28 26 24.728 26 21V15C26 11.272 40 9.27401 40 15V21Z" fill="#FFB74D"/>
<path d="M35 20C35 19.449 35.448 19 36 19C36.552 19 37 19.449 37 20C37 20.551 36.552 21 36 21C35.448 21 35 20.551 35 20ZM29 20C29 20.551 29.448 21 30 21C30.552 21 31 20.551 31 20C31 19.449 30.552 19 30 19C29.448 19 29 19.449 29 20Z" fill="#784719"/>
<path d="M24 16.0001C22.083 18.4581 22 21.6751 22 26.0001L27 30V19.0001L36 14.0001L39 18.0001V30L44 26.0001C44 24.3931 44.167 18.1671 42 16.0001C39.755 13.7551 27.889 11.0111 24 16.0001Z" fill="#4E342E"/>
<path d="M39.996 14C39.997 13.977 40 13.956 40 13.934V13C40 9.133 36.866 6 33 6C29.134 6 26 9.133 26 13V13.934C26 13.957 26.003 13.978 26.003 14H24V16H42V14H39.996Z" fill="#FF5722"/>
<path d="M31 5H35V14H31V5Z" fill="#D84315"/>
<path d="M9 20.25H21V33.75H9V20.25Z" fill="#4E342E"/>
<path d="M38 29.3609V35.9999H28V29.3359C27.292 29.5509 25.896 30.2189 25 30.9119V35.9999V37.9999V38.9999H41V37.9999V35.9999V30.9239C39.828 30.0779 38.709 29.5759 38 29.3609Z" fill="#FFA000"/>
<path d="M28 36H25V34H28V36ZM41 34H38V36H41V34Z" fill="#263238"/>
<path d="M18.75 33L15 33.77L11.25 33C11.25 33 3 34.527 3 43H27C27 34.559 18.75 33 18.75 33Z" fill="#00897B"/>
<path d="M15 38L11 33V29H19V33L15 38Z" fill="#FF9800"/>
<path d="M20 33.3609V39.9999H10V33.3359C9.292 33.5509 7.896 34.2189 7 34.9119V39.9999V41.9999V42.9999H23V41.9999V39.9999V34.9239C21.828 34.0779 20.709 33.5759 20 33.3609Z" fill="#F9A825"/>
<path d="M10 40H7V38H10V40ZM23 38H20V40H23V38Z" fill="#263238"/>
<path d="M22 25C22 28.728 18.728 32 15 32C11.271 32 8 28.728 8 25V19C8 15.272 22 13.274 22 19V25Z" fill="#FFB74D"/>
<path d="M17 24C17 23.449 17.448 23 18 23C18.552 23 19 23.449 19 24C19 24.551 18.552 25 18 25C17.448 25 17 24.551 17 24ZM11 24C11 24.551 11.448 25 12 25C12.552 25 13 24.551 13 24C13 23.449 12.552 23 12 23C11.448 23 11 23.449 11 24Z" fill="#784719"/>
<path d="M6 20.0001C4.083 22.4581 4 25.6751 4 30.0001L9 34V23.0001L18 18.0001L21 22.0001V34L26 30.0001C26 28.3931 26.167 22.1671 24 20.0001C21.755 17.7551 9.889 15.0111 6 20.0001Z" fill="#795548"/>
<path d="M21.996 18C21.997 17.977 22 17.956 22 17.934V17C22 13.133 18.866 10 15 10C11.134 10 8 13.133 8 17V17.934C8 17.956 8.003 17.977 8.003 18H6V20H24V18H21.996Z" fill="#FF5722"/>
<path d="M13 9H17V18H13V9Z" fill="#D84315"/>
</svg>
